<svg xmlns="http://www.w3.org/2000/svg" xmlns:xlink="http://www.w3.org/1999/xlink" width="24" height="24" viewBox="0 0 24 24">
    <defs>
        <path id="zqw6y6k9na" d="M0.257 0.067L10.894 0.067 10.894 10.705 0.257 10.705z"/>
    </defs>
    <g fill="none" fill-rule="evenodd">
        <g>
            <g>
                <path fill="#FFF" d="M6.93 16.579c4.96 4.96 9.538 6.09 11.276 6.345.35.05.697-.118.89-.43.606-.988 1.046-1.956 1.382-3.047.103-.332-.004-.698-.272-.931-1.022-.891-2.29-1.743-3.477-2.337-.344-.173-.759-.103-1.032.17l-.917.917c-.434.434-1.08.552-1.642.301-.948-.42-2.44-1.286-4.176-3.021-1.734-1.735-2.6-3.228-3.022-4.176-.25-.565-.131-1.209.302-1.642l.917-.917c.273-.274.342-.688.17-1.031-.593-1.187-1.445-2.455-2.337-3.478-.232-.267-.6-.375-.931-.272-1.092.337-2.06.776-3.046 1.382-.313.192-.482.541-.43.89C.84 7.04 1.97 11.62 6.929 16.58m11.401 6.929c-.068 0-.138-.005-.207-.015-1.795-.264-6.519-1.426-11.6-6.508C1.442 11.905.279 7.18.015 5.385c-.084-.576.19-1.15.698-1.463 1.029-.632 2.039-1.09 3.178-1.441.552-.17 1.153.005 1.535.443.936 1.075 1.795 2.352 2.418 3.598.282.565.17 1.247-.279 1.695l-.917.917c-.263.264-.335.658-.182 1.003.329.74 1.142 2.242 2.903 4.002 1.76 1.76 3.263 2.575 4.002 2.903.347.154.739.081 1.003-.182l.916-.917c.45-.448 1.13-.561 1.696-.279 1.247.625 2.525 1.483 3.598 2.418.44.383.613.985.444 1.535-.352 1.138-.81 2.148-1.442 3.178-.275.447-.753.713-1.256.713" transform="translate(-181 -306) translate(181 306)"/>
                <path fill="#E4610F" d="M17.219 11.213h-.575c0-2.378-1.934-4.313-4.312-4.313v-.575c2.695 0 4.887 2.193 4.887 4.888" transform="translate(-181 -306) translate(181 306)"/>
                <path fill="#E4610F" d="M20.094 11.213h-.575c0-3.964-3.224-7.188-7.187-7.188V3.45c4.28 0 7.762 3.482 7.762 7.763" transform="translate(-181 -306) translate(181 306)"/>
                <g transform="translate(-181 -306) translate(181 306) translate(12.075 .508)">
                    <mask id="w0dy58mkcb" fill="#fff">
                        <use xlink:href="#zqw6y6k9na"/>
                    </mask>
                    <path fill="#E4610F" d="M10.894 10.705h-.575C10.319 5.156 5.805.642.257.642V.067c5.865 0 10.637 4.772 10.637 10.638" mask="url(#w0dy58mkcb)"/>
                </g>
            </g>
        </g>
    </g>
</svg>
