<!-- Generated by IcoMoon.io -->
<svg version="1.1" xmlns="http://www.w3.org/2000/svg" width="42" height="32" viewBox="0 0 42 32">
<title>icon-email</title>
<path fill="#e4610f" d="M39.475 0h-36.842c-1.453 0-2.632 1.194-2.632 2.666v26.668c0 1.47 1.179 2.666 2.632 2.666h36.842c1.452 0 2.631-1.194 2.631-2.666v-26.668c0-1.47-1.179-2.666-2.632-2.666zM37.447 29.334h-32.63l9.213-9.654-1.896-1.853-9.499 9.959v-23.092l16.354 16.493c1.027 1.032 2.685 1.032 3.712 0l16.775-16.908v23.333l-9.684-9.812-1.854 1.88 9.512 9.654zM4.355 2.666h32.987l-16.5 16.627-16.488-16.627z"></path>
</svg>
